<svg xmlns="http://www.w3.org/2000/svg"  viewBox="0 0 24 24" width="24px" height="24px"><path d="M12.005,11.33v1.639c0,0.602,0.488,1.09,1.09,1.09h4.35c-0.604,1.971-2.094,3.464-4.249,3.866 c-3.429,0.638-6.865-1.856-7.199-5.328c-0.347-3.596,2.477-6.63,6.008-6.63c1.188,0,2.296,0.346,3.231,0.942 c0.429,0.273,0.987,0.214,1.347-0.146l1.291-1.291c0.475-0.475,0.42-1.274-0.129-1.66c-2.114-1.485-4.832-2.174-7.7-1.625 c-3.986,0.763-7.174,3.99-7.882,7.986C1.042,16.498,5.881,22,12.005,22c7.716,0,9.904-6.633,9.568-10.731 c-0.048-0.58-0.552-1.017-1.135-1.017l-7.341-0.011C12.494,10.239,12.005,10.728,12.005,11.33z"/></svg>